<?xml version="1.0" encoding="UTF-8"?>
<svg width="29px" height="29px" viewBox="0 0 29 29" version="1.1" xmlns="http://www.w3.org/2000/svg" xmlns:xlink="http://www.w3.org/1999/xlink">
    <!-- Generator: Sketch 58 (84663) - https://sketch.com -->
    <title>石油logo</title>
    <desc>Created with Sketch.</desc>
    <g id="页面-1" stroke="none" stroke-width="1" fill="none" fill-rule="evenodd">
        <g id="石油logo">
            <polygon id="路径-23" points="2.1 18 2.1 19.3 26.9 18.9 26.9 18 26.9 10.4 26.9 10 22.5 3.6 22.3 3.4 14.7 0.9 14.4 0.9 6.9 3.4 6.6 3.6 2.1 10 2 10.3"></polygon>
            <g id="中石油" fill-rule="nonzero">
                <path d="M9.9,0.1 C8.7,0.5 8.1,2.2 7.2,3.1 C7,3.2 6.9,3.3 6.9,3.3 L7.2,3.6 L13,10.8 C13.6,11.4 13.9,11.3 14,10.4 L14.5,0.8 C13.1,0.9 11.1,-0.2 9.9,0.1 L9.9,0.1 Z M7.1,4.4 L6.6,3.6 C5.5,4.4 3.2,4.6 2.5,5.6 C1.7,6.7 2.5,8.6 2.1,9.8 L7.1,11.1 L11.6,12.2 C12.4,12.3 12.6,12 12.2,11.3 L7.1,4.4 Z M11.6,13.4 L7.2,12 L2.1,10.4 C1.7,11.5 0,13 0,14.2 C0,15.5 1.8,16.6 2.1,17.9 L7.1,16 L11.6,14.3 C12.4,14 12.3,13.7 11.6,13.4 L11.6,13.4 Z M27,10.4 L19.5,12.7 L17.6,13.3 C16.8,13.6 16.8,14 17.6,14.4 L19.5,15.2 L26.9,18.1 C27.4,16.8 29,15.6 29,14.4 C29,13 27.3,11.7 27,10.4 L27,10.4 Z M22.3,3.4 C21.4,2.7 20.5,1 19.5,0.3 L19.5,0.3 C19.4,0.2 19.2,0.1 19.1,0.1 C17.9,-0.3 16.1,1 14.8,0.9 L15.2,10.5 C15.3,11.3 15.7,11.4 16.2,10.8 L19.6,6.8 L22.3,3.4 Z M17.5,12.3 L19.5,11.8 L27,10 C26.6,8.7 27.2,6.6 26.5,5.6 C25.8,4.5 23.5,4.5 22.5,3.7 L19.6,7.8 L17,11.5 C16.4,12.2 16.7,12.4 17.5,12.3 L17.5,12.3 Z" id="形状" fill="#FFB52E"></path>
                <path d="M14.4,15 L27,18.9 C26.7,20.4 27.2,21.9 26.3,23.3 C25.4,24.7 23.3,24.6 22,25.5 C20.7,26.4 20.4,28.4 19,28.9 C17.6,29.4 16.1,28.1 14.5,28.1 C12.9,28.1 11.3,29.4 9.8,28.8 C8.3,28.3 7.9,26.3 6.7,25.3 C5.5,24.3 3.4,24.4 2.6,23.1 C1.8,21.8 2.3,20.2 2,18.9 L14.4,15 Z" id="路径" fill="#E60012"></path>
            </g>
        </g>
    </g>
</svg>
